<?xml version="1.0" standalone="no"?><!DOCTYPE svg PUBLIC "-//W3C//DTD SVG 1.1//EN" "http://www.w3.org/Graphics/SVG/1.1/DTD/svg11.dtd"><svg t="1627005301282" class="icon" viewBox="0 0 1024 1024" version="1.1" xmlns="http://www.w3.org/2000/svg" p-id="703" xmlns:xlink="http://www.w3.org/1999/xlink" width="200" height="200"><defs><style type="text/css">@font-face { font-family: feedback-iconfont; src: url("//at.alicdn.com/t/font_1031158_1uhr8ri0pk5.eot?#iefix") format("embedded-opentype"), url("//at.alicdn.com/t/font_1031158_1uhr8ri0pk5.woff2") format("woff2"), url("//at.alicdn.com/t/font_1031158_1uhr8ri0pk5.woff") format("woff"), url("//at.alicdn.com/t/font_1031158_1uhr8ri0pk5.ttf") format("truetype"), url("//at.alicdn.com/t/font_1031158_1uhr8ri0pk5.svg#iconfont") format("svg"); }
</style></defs><path d="M337.92 886.784c-66.56 0-130.048-25.6-177.152-73.216s-73.216-110.08-73.216-176.64 26.112-129.536 73.216-176.64c47.616-47.104 110.08-73.216 176.64-73.216h456.704c16.896 0 30.208 13.312 30.208 30.208s-13.824 30.208-30.208 30.208H337.92c-104.448 0-189.44 84.992-189.44 189.44s84.992 189.44 189.44 189.44h402.432c16.896 0 30.208 13.824 30.208 30.208 0 16.896-13.824 30.208-30.208 30.208H337.92z" fill="#efb336" p-id="704"></path><path d="M970.24 451.584l-187.904 144.384c-20.48 15.36-45.568-3.584-45.568-34.816V272.896c0-30.72 25.6-50.176 45.568-34.816l187.904 143.872c19.968 15.872 19.968 54.272 0 69.632z" fill="#efb336" p-id="705"></path></svg>