<?xml version="1.0" standalone="no"?><!DOCTYPE svg PUBLIC "-//W3C//DTD SVG 1.1//EN" "http://www.w3.org/Graphics/SVG/1.1/DTD/svg11.dtd"><svg t="1627005100383" class="icon" viewBox="0 0 1024 1024" version="1.1" xmlns="http://www.w3.org/2000/svg" p-id="5254" xmlns:xlink="http://www.w3.org/1999/xlink" width="200" height="200"><defs><style type="text/css">@font-face { font-family: feedback-iconfont; src: url("//at.alicdn.com/t/font_1031158_1uhr8ri0pk5.eot?#iefix") format("embedded-opentype"), url("//at.alicdn.com/t/font_1031158_1uhr8ri0pk5.woff2") format("woff2"), url("//at.alicdn.com/t/font_1031158_1uhr8ri0pk5.woff") format("woff"), url("//at.alicdn.com/t/font_1031158_1uhr8ri0pk5.ttf") format("truetype"), url("//at.alicdn.com/t/font_1031158_1uhr8ri0pk5.svg#iconfont") format("svg"); }
</style></defs><path d="M830.104 238.856v662.944c0 49.832-40.392 90.192-90.16 90.192H284.152c-49.768 0-90.16-40.368-90.16-90.192V238.856" fill="#F0AF2D" p-id="5255"></path><path d="M511.944 238.856V992h228c49.768 0 90.16-40.368 90.16-90.192V238.856h-318.16z" fill="#E59330" p-id="5256"></path><path d="M320.16 441.504h63.152V789.36H320.16zM480.432 441.504h63.16V789.36h-63.16z" fill="#D98D1B" p-id="5257"></path><path d="M640.72 441.504h63.16V789.36H640.72z" fill="#CA7C18" p-id="5258"></path><path d="M896.088 302.104H127.912a63.16 63.16 0 0 1 0-126.296h768.176a63.152 63.152 0 0 1 0 126.296z" fill="#E5226B" p-id="5259"></path><path d="M512.032 175.808h384.048a63.144 63.144 0 0 1 63.152 63.144 63.136 63.136 0 0 1-63.152 63.152H512.032V175.808z" fill="#CB1B5B" p-id="5260"></path><path d="M324.968 153.048C324.968 103.624 408.712 32 512.032 32c103.288 0 187.024 71.624 187.024 121.048" fill="#0092D2" p-id="5261"></path><path d="M512.032 153.048h187.024C699.064 103.624 615.32 32 512.032 32" fill="#1B81CC" p-id="5262"></path></svg>