<?xml version="1.0" standalone="no"?><!DOCTYPE svg PUBLIC "-//W3C//DTD SVG 1.1//EN" "http://www.w3.org/Graphics/SVG/1.1/DTD/svg11.dtd"><svg t="1627007972729" class="icon" viewBox="0 0 1024 1024" version="1.1" xmlns="http://www.w3.org/2000/svg" p-id="719" xmlns:xlink="http://www.w3.org/1999/xlink" width="200" height="200"><defs><style type="text/css">@font-face { font-family: feedback-iconfont; src: url("//at.alicdn.com/t/font_1031158_1uhr8ri0pk5.eot?#iefix") format("embedded-opentype"), url("//at.alicdn.com/t/font_1031158_1uhr8ri0pk5.woff2") format("woff2"), url("//at.alicdn.com/t/font_1031158_1uhr8ri0pk5.woff") format("woff"), url("//at.alicdn.com/t/font_1031158_1uhr8ri0pk5.ttf") format("truetype"), url("//at.alicdn.com/t/font_1031158_1uhr8ri0pk5.svg#iconfont") format("svg"); }
</style></defs><path d="M0 512c0 282.624 229.376 512 512 512s512-229.376 512-512S794.624 0 512 0 0 229.376 0 512z" fill="#FFFFFF" p-id="720"></path><path d="M113.664 512c0 220.16 178.176 398.336 398.336 398.336S910.336 732.16 910.336 512 732.16 113.664 512 113.664 113.664 291.84 113.664 512z" fill="#efb336" p-id="721"></path><path d="M722.432 310.784c10.752 10.752 10.752 29.696 0 40.448L360.448 713.216c-10.752 10.752-29.696 10.752-40.448 0-10.752-10.752-10.752-29.696 0-40.448l361.984-361.984c11.264-10.752 29.696-10.752 40.448 0z" fill="#FFFFFF" p-id="722"></path><path d="M320.512 310.784c10.752-10.752 29.696-10.752 40.448 0l361.984 361.984c10.752 10.752 10.752 29.696 0 40.448-10.752 10.752-29.696 10.752-40.448 0L320.512 351.232c-10.752-10.752-10.752-29.696 0-40.448z" fill="#FFFFFF" p-id="723"></path></svg>