<?xml version="1.0" standalone="no"?><!DOCTYPE svg PUBLIC "-//W3C//DTD SVG 1.1//EN" "http://www.w3.org/Graphics/SVG/1.1/DTD/svg11.dtd"><svg t="1627008159095" class="icon" viewBox="0 0 1024 1024" version="1.1" xmlns="http://www.w3.org/2000/svg" p-id="719" xmlns:xlink="http://www.w3.org/1999/xlink" width="200" height="200"><defs><style type="text/css"></style></defs><path d="M512 850.346667a85.333333 85.333333 0 0 1-59.733333-26.026667l-278.186667-289.28a66.133333 66.133333 0 0 1-17.493333-42.666667A64 64 0 0 1 220.586667 426.666667H341.333333V170.666667a85.333333 85.333333 0 0 1 85.333334-85.333334h170.666666a85.333333 85.333333 0 0 1 85.333334 85.333334v256h120.746666a61.866667 61.866667 0 0 1 34.56 10.24l6.4 4.693333a64.853333 64.853333 0 0 1 5.546667 93.44l-276.053333 289.28a85.333333 85.333333 0 0 1-61.866667 26.026667zM270.506667 512L512 765.013333 753.493333 512H597.333333V170.666667h-170.666666v341.333333z" fill="#efb336" p-id="720"></path><path d="M896 981.333333H128a85.333333 85.333333 0 0 1-85.333333-85.333333v-256a42.666667 42.666667 0 0 1 85.333333 0v256h768v-256a42.666667 42.666667 0 0 1 85.333333 0v256a85.333333 85.333333 0 0 1-85.333333 85.333333z" fill="#efb336" p-id="721"></path></svg>