<?xml version="1.0" standalone="no"?><!DOCTYPE svg PUBLIC "-//W3C//DTD SVG 1.1//EN" "http://www.w3.org/Graphics/SVG/1.1/DTD/svg11.dtd"><svg t="1626955522749" class="icon" viewBox="0 0 1024 1024" version="1.1" xmlns="http://www.w3.org/2000/svg" p-id="1496" xmlns:xlink="http://www.w3.org/1999/xlink" width="200" height="200"><defs><style type="text/css">@font-face { font-family: feedback-iconfont; src: url("//at.alicdn.com/t/font_1031158_1uhr8ri0pk5.eot?#iefix") format("embedded-opentype"), url("//at.alicdn.com/t/font_1031158_1uhr8ri0pk5.woff2") format("woff2"), url("//at.alicdn.com/t/font_1031158_1uhr8ri0pk5.woff") format("woff"), url("//at.alicdn.com/t/font_1031158_1uhr8ri0pk5.ttf") format("truetype"), url("//at.alicdn.com/t/font_1031158_1uhr8ri0pk5.svg#iconfont") format("svg"); }
</style></defs><path d="M102.47168 0h819.2a102.4 102.4 0 0 1 102.4 102.4v819.2a102.4 102.4 0 0 1-102.4 102.4h-819.2a102.4 102.4 0 0 1-102.4-102.4V102.4a102.4 102.4 0 0 1 102.4-102.4z" fill="#FF875D" p-id="1497"></path><path d="M512 522.24m-409.6 0a409.6 409.6 0 1 0 819.2 0 409.6 409.6 0 1 0-819.2 0Z" fill="#B3B8BD" p-id="1498"></path><path d="M512 491.52m-409.6 0a409.6 409.6 0 1 0 819.2 0 409.6 409.6 0 1 0-819.2 0Z" fill="#FFFFFF" p-id="1499"></path><path d="M261.12 455.68m-97.28 0a97.28 97.28 0 1 0 194.56 0 97.28 97.28 0 1 0-194.56 0Z" fill="#FFD95C" p-id="1500"></path><path d="M404.48 271.36m-97.28 0a97.28 97.28 0 1 0 194.56 0 97.28 97.28 0 1 0-194.56 0Z" fill="#F36C52" p-id="1501"></path><path d="M650.24 271.36m-97.28 0a97.28 97.28 0 1 0 194.56 0 97.28 97.28 0 1 0-194.56 0Z" fill="#7BE3FD" p-id="1502"></path><path d="M711.68 650.24m-97.28 0a97.28 97.28 0 1 0 194.56 0 97.28 97.28 0 1 0-194.56 0Z" fill="#B3B8BD" p-id="1503"></path><path d="M711.68 650.24m-97.28 0a97.28 97.28 0 1 0 194.56 0 97.28 97.28 0 1 0-194.56 0Z" fill="#B3B8BD" p-id="1504"></path><path d="M716.87168 573.44c53.72928 0 92.16 23.07072 92.16 76.8a97.28 97.28 0 0 1-194.56 0c0-53.72928 48.68096-76.8 102.4-76.8z" fill="#FF875D" p-id="1505"></path><path d="M406.92736 601.088c-20.6336 26.74688-63.488 26.7264-86.51776-16.30208-15.9744-29.91104-3.61472-118.29248-3.61472-118.29248a104.25344 104.25344 0 0 0 59.05408 61.85984c41.7792 17.59232 59.0336 36.42368 31.0784 72.73472z" fill="#FBC826" p-id="1506"></path><path d="M472.04352 643.30752l-70.12352 46.75584-42.87488-72.704 59.33056-39.55712z" fill="#DCDDDC" p-id="1507"></path><path d="M407.30624 676.05504l54.5792-46.46912L716.87168 993.28z" fill="#202F4F" p-id="1508"></path></svg>