<?xml version="1.0" standalone="no"?><!DOCTYPE svg PUBLIC "-//W3C//DTD SVG 1.1//EN" "http://www.w3.org/Graphics/SVG/1.1/DTD/svg11.dtd"><svg t="1627004948792" class="icon" viewBox="0 0 1024 1024" version="1.1" xmlns="http://www.w3.org/2000/svg" p-id="2060" xmlns:xlink="http://www.w3.org/1999/xlink" width="200" height="200"><defs><style type="text/css">@font-face { font-family: feedback-iconfont; src: url("//at.alicdn.com/t/font_1031158_1uhr8ri0pk5.eot?#iefix") format("embedded-opentype"), url("//at.alicdn.com/t/font_1031158_1uhr8ri0pk5.woff2") format("woff2"), url("//at.alicdn.com/t/font_1031158_1uhr8ri0pk5.woff") format("woff"), url("//at.alicdn.com/t/font_1031158_1uhr8ri0pk5.ttf") format("truetype"), url("//at.alicdn.com/t/font_1031158_1uhr8ri0pk5.svg#iconfont") format("svg"); }
</style></defs><path d="M24.557998 345.959484a83.868489 83.868489 0 0 0 0 118.594917l158.933539 158.933538 59.297458-59.297458zM559.445599 999.442002a83.868489 83.868489 0 0 0 118.594917 0L597.378995 918.7962l-59.297459 59.297459zM41.410298 329.121332l59.305319-59.305319 218.218421 218.219993-59.303747 59.303747zM614.239155 901.950188l59.305319-59.303746 80.645801 80.645801-59.303747 59.305319zM117.555341 252.974717l59.305319-59.303746 218.218421 218.21842-59.303747 59.303747zM690.373193 825.81615l59.305319-59.303747 80.645801 80.645802-59.303747 59.305319zM193.678375 176.845395l59.305319-59.303746 218.21842 218.21842-59.303746 59.303747zM766.507231 749.675824l59.305319-59.305319 80.645802 80.647373-59.303747 59.303747zM842.65699 673.541786l59.305319-59.305319 80.645801 80.645801-59.303747 59.305319zM269.828134 100.709785l59.305318-59.303747 218.218421 218.218421-59.303747 59.305319zM464.557089 24.55531a83.868489 83.868489 0 0 0-118.594917 0l218.230997 218.230997 59.297458-59.297458zM999.44469 678.037828a83.868489 83.868489 0 0 0 0-118.594917l-21.348343-21.348343L918.798888 597.376306z" fill="#FF8E58" p-id="2061"></path><path d="M183.494681 623.480079l59.303747-59.303747L597.410435 918.78834l-59.303746 59.303747zM259.628719 547.346041l59.303747-59.303747L673.544474 842.654302l-59.303747 59.303747zM335.762757 471.204142l59.303747-59.303746L749.678512 766.512403l-59.303747 59.303747zM411.912516 395.070104l59.303747-59.303747L825.828271 690.378365l-59.303747 59.303747zM488.046554 318.912485l59.303747-59.303747L901.962309 614.220746l-59.303747 59.303747zM564.180592 242.778447l59.303747-59.303747L978.096347 538.086708l-59.303747 59.303747z" fill="#2C2570" p-id="2062"></path></svg>