<?xml version="1.0" standalone="no"?><!DOCTYPE svg PUBLIC "-//W3C//DTD SVG 1.1//EN" "http://www.w3.org/Graphics/SVG/1.1/DTD/svg11.dtd"><svg t="1627005501085" class="icon" viewBox="0 0 1024 1024" version="1.1" xmlns="http://www.w3.org/2000/svg" p-id="706" xmlns:xlink="http://www.w3.org/1999/xlink" width="200" height="200"><defs><style type="text/css">@font-face { font-family: feedback-iconfont; src: url("//at.alicdn.com/t/font_1031158_1uhr8ri0pk5.eot?#iefix") format("embedded-opentype"), url("//at.alicdn.com/t/font_1031158_1uhr8ri0pk5.woff2") format("woff2"), url("//at.alicdn.com/t/font_1031158_1uhr8ri0pk5.woff") format("woff"), url("//at.alicdn.com/t/font_1031158_1uhr8ri0pk5.ttf") format("truetype"), url("//at.alicdn.com/t/font_1031158_1uhr8ri0pk5.svg#iconfont") format("svg"); }
</style></defs><path d="M773.973333 290.133333H265.250133V205.892267c0-15.018667-11.810133-22.357333-20.821333-15.701334-12.288 8.977067-181.794133 138.786133-192.170667 146.909867-9.3184 7.2704-9.454933 24.576 0 31.812267 14.4384 11.0592 183.296 140.219733 191.761067 146.602666 10.5472 7.9872 21.230933-2.184533 21.230933-15.837866v-141.141334h13.789867V358.4h499.643733c23.04 0 45.533867 8.123733 62.395734 23.825067 29.934933 27.921067 69.4272 83.285333 69.4272 180.974933 0 98.542933-47.547733 157.866667-77.824 185.685333-13.653333 12.526933-31.573333 19.114667-50.0736 19.114667H57.173333v68.266667s616.618667-2.286933 716.8 0c100.181333 2.2528 204.8-142.609067 204.8-273.066667 0-265.045333-204.8-273.066667-204.8-273.066667z" fill="#efb336" p-id="707"></path></svg>